<svg width="467" height="213" viewBox="0 0 467 213" fill="none" xmlns="http://www.w3.org/2000/svg">
<g filter="url(#filter0_dd_94:704)">
<mask id="mask0_94:704" style="mask-type:alpha" maskUnits="userSpaceOnUse" x="11" y="18" width="481" height="348">
<path d="M226.876 259.557L287.848 245.036L273.327 184.064L212.354 198.585L226.876 259.557Z" fill="#F9E050"/>
<path d="M101.179 130.181L162.151 115.659L151.531 71.0677L90.5591 85.5889L101.179 130.181Z" fill="#F4F464"/>
<path d="M156.767 164.382L217.739 149.861L203.218 88.8889L142.246 103.41L156.767 164.382ZM22.1121 196.452L67.0071 185.76L56.3149 140.865L11.4199 151.557L22.1121 196.452ZM122.55 219.909L167.445 209.217L156.752 164.322L111.857 175.014L122.55 219.909Z" fill="#F4F464"/>
<path d="M194.8 124.874L255.772 110.353L241.323 49.6839L180.351 64.2051L194.8 124.874Z" fill="#F6842D"/>
<path d="M250.112 159.143L311.085 144.622L296.564 83.6497L235.591 98.1709L250.112 159.143Z" fill="#F4AC2B"/>
<path d="M260.782 203.946L321.755 189.425L307.234 128.452L246.261 142.974L260.782 203.946Z" fill="#F6842D"/>
<path d="M271.497 248.93L332.469 234.409L317.948 173.437L256.976 187.958L271.497 248.93Z" fill="#F4AC2B"/>
<path d="M225.275 53.5069L235.895 98.0986L280.486 87.4786L323.241 266.998L278.346 277.69L289.038 322.585L409.375 293.926C427.454 289.62 442.615 283.829 454.791 276.538C466.981 269.308 476.06 259.516 482.098 247.18C488.135 234.843 491.182 219.372 491.117 200.795C491.067 182.28 487.789 159.5 481.331 132.381C474.814 105.019 467.615 83.2693 459.717 67.1995C451.716 50.8336 442.449 38.8404 431.922 31.25C421.385 23.2922 408.582 18.9068 395.379 18.7326C381.62 18.1629 365.564 20.0634 347.273 24.4198L269.829 42.8638L225.275 53.5069ZM325.436 68.5353L354.466 61.6215C364.476 59.2374 373.426 58.3239 381.195 58.9099C389.243 59.2365 396.837 62.7273 402.325 68.623C408.658 74.4874 414.328 83.4907 419.403 95.649C424.752 107.742 429.9 124.243 434.884 145.173C439.855 166.043 442.666 183.229 443.431 196.67C444.411 209.803 443.436 220.518 440.515 228.842C437.814 236.53 432.598 243.082 425.709 247.434C418.985 251.504 410.766 254.68 400.968 257.013L371.968 263.92L325.436 68.5353Z" fill="#F14D34"/>
<path d="M201.662 153.69L246.557 142.998L235.865 98.1027L190.97 108.795L201.662 153.69Z" fill="#F9E050"/>
<path d="M146.075 119.489L190.97 108.797L180.35 64.2053L135.455 74.8975L146.075 119.489Z" fill="#F9E050"/>
</mask>
<g mask="url(#mask0_94:704)">
<g filter="url(#filter1_d_94:704)">
<path d="M226.876 259.557L287.848 245.036L273.327 184.064L212.354 198.585L226.876 259.557Z" fill="#F9E050"/>
<path d="M101.179 130.181L162.151 115.659L151.531 71.0677L90.5591 85.5889L101.179 130.181Z" fill="#F4F464"/>
<path d="M156.767 164.382L217.739 149.861L203.218 88.8889L142.246 103.41L156.767 164.382ZM22.1121 196.452L67.0071 185.76L56.3149 140.865L11.4199 151.557L22.1121 196.452ZM122.55 219.909L167.445 209.217L156.752 164.322L111.857 175.014L122.55 219.909Z" fill="#F4F464"/>
<path d="M194.8 124.874L255.772 110.353L241.323 49.6839L180.351 64.2051L194.8 124.874Z" fill="#F6842D"/>
<path d="M250.112 159.143L311.085 144.622L296.564 83.6497L235.591 98.1709L250.112 159.143Z" fill="#F4AC2B"/>
<path d="M260.782 203.946L321.755 189.425L307.234 128.452L246.261 142.974L260.782 203.946Z" fill="#F6842D"/>
<path d="M271.497 248.93L332.469 234.409L317.948 173.437L256.976 187.958L271.497 248.93Z" fill="#F4AC2B"/>
<path d="M225.275 53.5069L235.895 98.0986L280.486 87.4786L323.241 266.998L278.346 277.69L289.038 322.585L409.375 293.926C427.454 289.62 442.615 283.829 454.791 276.538C466.981 269.308 476.06 259.516 482.098 247.18C488.135 234.843 491.182 219.372 491.117 200.795C491.067 182.28 487.789 159.5 481.331 132.381C474.814 105.019 467.615 83.2693 459.717 67.1995C451.716 50.8336 442.449 38.8404 431.922 31.25C421.385 23.2922 408.582 18.9068 395.379 18.7326C381.62 18.1629 365.564 20.0634 347.273 24.4198L269.829 42.8638L225.275 53.5069ZM325.436 68.5353L354.466 61.6215C364.476 59.2374 373.426 58.3239 381.195 58.9099C389.243 59.2365 396.837 62.7273 402.325 68.623C408.658 74.4874 414.328 83.4907 419.403 95.649C424.752 107.742 429.9 124.243 434.884 145.173C439.855 166.043 442.666 183.229 443.431 196.67C444.411 209.803 443.436 220.518 440.515 228.842C437.814 236.53 432.598 243.082 425.709 247.434C418.985 251.504 410.766 254.68 400.968 257.013L371.968 263.92L325.436 68.5353Z" fill="#F14D34"/>
<path d="M201.662 153.69L246.557 142.998L235.865 98.1027L190.97 108.795L201.662 153.69Z" fill="#F9E050"/>
<path d="M146.075 119.489L190.97 108.797L180.35 64.2053L135.455 74.8975L146.075 119.489Z" fill="#F9E050"/>
</g>
<rect x="0.792603" y="106.937" width="129.24" height="77.5442" transform="rotate(-13.396 0.792603 106.937)" fill="url(#paint0_linear_94:704)"/>
</g>
</g>
<defs>
<filter id="filter0_dd_94:704" x="-8.19803" y="0" width="531.066" height="408.189" filterUnits="userSpaceOnUse" color-interpolation-filters="sRGB">
<feFlood flood-opacity="0" result="BackgroundImageFix"/>
<feColorMatrix in="SourceAlpha" type="matrix" values="0 0 0 0 0 0 0 0 0 0 0 0 0 0 0 0 0 0 127 0" result="hardAlpha"/>
<feOffset dy="23.2258"/>
<feGaussianBlur stdDeviation="4.49532"/>
<feColorMatrix type="matrix" values="0 0 0 0 0 0 0 0 0 0.0495833 0 0 0 0 0.145833 0 0 0 0.25 0"/>
<feBlend mode="normal" in2="BackgroundImageFix" result="effect1_dropShadow_94:704"/>
<feColorMatrix in="SourceAlpha" type="matrix" values="0 0 0 0 0 0 0 0 0 0 0 0 0 0 0 0 0 0 127 0" result="hardAlpha"/>
<feOffset dy="2.62227"/>
<feColorMatrix type="matrix" values="0 0 0 0 0.2375 0 0 0 0 0.136562 0 0 0 0 0.136562 0 0 0 1 0"/>
<feBlend mode="normal" in2="effect1_dropShadow_94:704" result="effect2_dropShadow_94:704"/>
<feBlend mode="normal" in="SourceGraphic" in2="effect2_dropShadow_94:704" result="shape"/>
</filter>
<filter id="filter1_d_94:704" x="2.42929" y="18.6338" width="497.68" height="378.863" filterUnits="userSpaceOnUse" color-interpolation-filters="sRGB">
<feFlood flood-opacity="0" result="BackgroundImageFix"/>
<feColorMatrix in="SourceAlpha" type="matrix" values="0 0 0 0 0 0 0 0 0 0 0 0 0 0 0 0 0 0 127 0" result="hardAlpha"/>
<feOffset dy="23.2258"/>
<feGaussianBlur stdDeviation="4.49532"/>
<feColorMatrix type="matrix" values="0 0 0 0 0 0 0 0 0 0.0495833 0 0 0 0 0.145833 0 0 0 0.25 0"/>
<feBlend mode="normal" in2="BackgroundImageFix" result="effect1_dropShadow_94:704"/>
<feBlend mode="normal" in="SourceGraphic" in2="effect1_dropShadow_94:704" result="shape"/>
</filter>
<linearGradient id="paint0_linear_94:704" x1="55.673" y1="69.6628" x2="85.6417" y2="162.753" gradientUnits="userSpaceOnUse">
<stop stop-color="white"/>
<stop offset="1" stop-color="white" stop-opacity="0"/>
</linearGradient>
</defs>
</svg>
