<svg width="679" height="655" viewBox="0 0 679 655" fill="none" xmlns="http://www.w3.org/2000/svg" xmlns:xlink="http://www.w3.org/1999/xlink">
<g opacity="0.78" filter="url(#filter0_f_94:310)">
<path d="M-50 578C-50 582.971 -45.9706 587 -41 587H575C553.249 575.188 528.891 569 504.14 569H-41C-45.9706 569 -50 573.029 -50 578Z" fill="#2D2F38"/>
</g>
<g filter="url(#filter1_d_94:310)">
<rect x="-50" y="65" width="547" height="482" rx="20" fill="white"/>
<rect x="-50" y="65" width="547" height="482" rx="20" fill="url(#paint0_linear_94:310)" fill-opacity="0.096"/>
<path d="M-50 564.5C-50 554.835 -42.165 547 -32.5 547H610C587.59 569.41 557.195 582 525.503 582H-32.5C-42.165 582 -50 574.165 -50 564.5Z" fill="white"/>
<path d="M-50 564.5C-50 554.835 -42.165 547 -32.5 547H610C587.59 569.41 557.195 582 525.503 582H-32.5C-42.165 582 -50 574.165 -50 564.5Z" fill="url(#paint1_linear_94:310)" fill-opacity="0.32"/>
<path d="M-50 564.5C-50 554.835 -42.165 547 -32.5 547H610C587.59 569.41 557.195 582 525.503 582H-32.5C-42.165 582 -50 574.165 -50 564.5Z" fill="url(#paint2_linear_94:310)" fill-opacity="0.396"/>
<mask id="mask0_94:310" style="mask-type:alpha" maskUnits="userSpaceOnUse" x="-50" y="100" width="511" height="415">
<rect x="-50" y="100" width="511" height="415" fill="#C4C4C4"/>
</mask>
<g mask="url(#mask0_94:310)">
<rect x="-456" y="49" width="1175" height="693" rx="5" fill="white"/>
<rect x="-456" y="49" width="1175" height="693" rx="5" fill="url(#pattern0)"/>
<g filter="url(#filter2_d_94:310)">
<rect x="-214" y="100" width="675" height="420" fill="#F6F7FB"/>
</g>
<g clip-path="url(#clip0_94:310)">
<g filter="url(#filter3_d_94:310)">
<rect x="281" y="263" width="156" height="96" rx="3" fill="#538AFC"/>
</g>
<path d="M295.154 291.6V294.46H298.234V307H301.798V291.6H295.154ZM309.753 297.386H308.499L308.741 294.46H315.165V291.6H305.771L304.979 300.268H308.917C311.711 300.268 312.503 301.06 312.503 302.27C312.503 303.524 311.403 304.272 309.621 304.272C308.015 304.272 306.409 303.766 305.243 302.886L303.835 305.614C305.331 306.67 307.575 307.264 309.709 307.264C314.109 307.264 316.111 304.888 316.111 302.16C316.111 299.432 314.307 297.386 309.753 297.386Z" fill="white"/>
<path opacity="0.6" d="M299.12 321.66V324C298.69 324.2 298.22 324.3 297.78 324.3C297.06 324.3 296.63 323.99 296.63 323.29V321.66H295.38V323.37C295.38 324.7 296.16 325.3 297.51 325.3C298.1 325.3 298.64 325.16 299.12 324.93V327H300.37V321.66H299.12ZM307.051 324.36C307.051 322.69 305.911 321.6 304.351 321.6C302.761 321.6 301.591 322.74 301.591 324.33C301.591 325.92 302.751 327.07 304.541 327.07C305.461 327.07 306.211 326.77 306.691 326.2L306.021 325.43C305.641 325.82 305.171 326.01 304.571 326.01C303.641 326.01 302.991 325.51 302.841 324.73H307.031C307.041 324.61 307.051 324.46 307.051 324.36ZM304.351 322.6C305.171 322.6 305.761 323.13 305.861 323.9H302.831C302.951 323.12 303.541 322.6 304.351 322.6ZM308.87 321.66L308.78 323.72C308.72 324.83 308.69 325.97 307.87 325.97C307.8 325.97 307.72 325.96 307.63 325.94L307.57 326.99C307.83 327.06 308.06 327.1 308.26 327.1C309.52 327.1 309.8 325.68 309.89 323.78L309.94 322.72H311.94V327H313.19V321.66H308.87ZM317.253 327.07C318.913 327.07 320.103 325.93 320.103 324.33C320.103 322.73 318.913 321.6 317.253 321.6C315.613 321.6 314.413 322.73 314.413 324.33C314.413 325.93 315.613 327.07 317.253 327.07ZM317.253 326C316.353 326 315.673 325.35 315.673 324.33C315.673 323.31 316.353 322.66 317.253 322.66C318.163 322.66 318.843 323.31 318.843 324.33C318.843 325.35 318.163 326 317.253 326ZM325.208 324.22C325.718 324 326.028 323.59 326.028 323.04C326.028 322.16 325.248 321.66 323.948 321.66H321.338V327H324.058C325.498 327 326.198 326.44 326.198 325.5C326.198 324.85 325.868 324.42 325.208 324.22ZM322.528 322.57H323.838C324.478 322.57 324.808 322.78 324.808 323.22C324.808 323.66 324.478 323.89 323.838 323.89H322.528V322.57ZM323.958 326.09H322.528V324.72H323.998C324.678 324.72 324.988 324.95 324.988 325.42C324.988 325.88 324.628 326.09 323.958 326.09ZM332.529 324.36C332.529 322.69 331.389 321.6 329.829 321.6C328.239 321.6 327.069 322.74 327.069 324.33C327.069 325.92 328.229 327.07 330.019 327.07C330.939 327.07 331.689 326.77 332.169 326.2L331.499 325.43C331.119 325.82 330.649 326.01 330.049 326.01C329.119 326.01 328.469 325.51 328.319 324.73H332.509C332.519 324.61 332.529 324.46 332.529 324.36ZM329.829 322.6C330.649 322.6 331.239 323.13 331.339 323.9H328.309C328.429 323.12 329.019 322.6 329.829 322.6ZM337.727 327H339.197L337.127 324.23L339.067 321.66H337.727L336.147 323.82H335.147V321.66H333.897V327H335.147V324.86H336.117L337.727 327ZM299.71 336.22C300.22 336 300.53 335.59 300.53 335.04C300.53 334.16 299.75 333.66 298.45 333.66H295.84V339H298.56C300 339 300.7 338.44 300.7 337.5C300.7 336.85 300.37 336.42 299.71 336.22ZM297.03 334.57H298.34C298.98 334.57 299.31 334.78 299.31 335.22C299.31 335.66 298.98 335.89 298.34 335.89H297.03V334.57ZM298.46 338.09H297.03V336.72H298.5C299.18 336.72 299.49 336.95 299.49 337.42C299.49 337.88 299.13 338.09 298.46 338.09ZM308.625 339H310.095L308.025 336.23L309.965 333.66H308.625L307.045 335.82H306.045V333.66H304.795V339H306.045V336.86H307.015L308.625 339ZM313.181 339.07C314.841 339.07 316.031 337.93 316.031 336.33C316.031 334.73 314.841 333.6 313.181 333.6C311.541 333.6 310.341 334.73 310.341 336.33C310.341 337.93 311.541 339.07 313.181 339.07ZM313.181 338C312.281 338 311.601 337.35 311.601 336.33C311.601 335.31 312.281 334.66 313.181 334.66C314.091 334.66 314.771 335.31 314.771 336.33C314.771 337.35 314.091 338 313.181 338ZM323.646 339L323.636 333.66H322.466L320.476 337L318.576 333.66H317.266V339H318.406V335.45L320.176 338.44H320.716L322.516 335.46V339H323.646ZM327.312 333.6C326.452 333.6 325.622 333.82 325.052 334.26L325.542 335.17C325.942 334.84 326.562 334.64 327.162 334.64C328.052 334.64 328.492 335.07 328.492 335.8V335.88H327.112C325.492 335.88 324.892 336.58 324.892 337.47C324.892 338.4 325.662 339.07 326.882 339.07C327.682 339.07 328.262 338.81 328.562 338.35V339H329.742V335.87C329.742 334.33 328.852 333.6 327.312 333.6ZM327.142 338.16C326.502 338.16 326.122 337.87 326.122 337.42C326.122 337.03 326.352 336.71 327.202 336.71H328.492V337.33C328.282 337.88 327.752 338.16 327.142 338.16ZM331.289 339H332.539V336.89H335.229V339H336.479V333.66H335.229V335.83H332.539V333.66H331.289V339ZM343.064 337.94V333.66H338.664L338.594 335.49C338.534 336.74 338.404 337.91 337.654 337.94H337.404V340.19H338.564V339H342.684V340.19H343.854V337.94H343.064ZM339.734 335.58L339.764 334.72H341.814V337.94H339.184C339.614 337.53 339.694 336.58 339.734 335.58ZM349.971 336.36C349.971 334.69 348.831 333.6 347.271 333.6C345.681 333.6 344.511 334.74 344.511 336.33C344.511 337.92 345.671 339.07 347.461 339.07C348.381 339.07 349.131 338.77 349.611 338.2L348.941 337.43C348.561 337.82 348.091 338.01 347.491 338.01C346.561 338.01 345.911 337.51 345.761 336.73H349.951C349.961 336.61 349.971 336.46 349.971 336.36ZM347.271 334.6C348.091 334.6 348.681 335.13 348.781 335.9H345.751C345.871 335.12 346.461 334.6 347.271 334.6Z" fill="white"/>
</g>
<g clip-path="url(#clip1_94:310)">
<g filter="url(#filter4_d_94:310)">
<rect x="281" y="376" width="156" height="96" rx="3" fill="#FA6D89"/>
</g>
<path d="M309.96 413.862H307.452V410.98H304.086V413.862H299.95L306.682 404.6H302.942L295.682 414.368V416.766H303.976V420H307.452V416.766H309.96V413.862ZM313.502 415.908C312.292 415.908 311.368 416.744 311.368 418.02C311.368 418.922 311.83 419.604 312.556 419.89L311.588 423.388H313.766L315.02 420.22C315.526 419.01 315.614 418.592 315.614 418.02C315.614 416.766 314.734 415.908 313.502 415.908ZM322.493 410.386H321.239L321.481 407.46H327.905V404.6H318.511L317.719 413.268H321.657C324.451 413.268 325.243 414.06 325.243 415.27C325.243 416.524 324.143 417.272 322.361 417.272C320.755 417.272 319.149 416.766 317.983 415.886L316.575 418.614C318.071 419.67 320.315 420.264 322.449 420.264C326.849 420.264 328.851 417.888 328.851 415.16C328.851 412.432 327.047 410.386 322.493 410.386ZM344.536 408.164V413.136C343.766 413.51 342.908 413.708 342.006 413.708C340.642 413.708 339.828 413.136 339.828 411.662V408.164H336.396V411.882C336.396 414.984 338.112 416.348 341.236 416.348C342.534 416.348 343.612 416.062 344.536 415.6V420H347.968V408.164H344.536ZM355.861 407.988C353.969 407.988 352.055 408.494 350.757 409.418L351.989 411.816C352.847 411.134 354.145 410.716 355.399 410.716C357.247 410.716 358.127 411.574 358.127 413.048H355.399C351.791 413.048 350.317 414.5 350.317 416.59C350.317 418.636 351.967 420.176 354.739 420.176C356.477 420.176 357.709 419.604 358.347 418.526V420H361.559V413.246C361.559 409.66 359.469 407.988 355.861 407.988ZM355.597 417.866C354.387 417.866 353.661 417.294 353.661 416.436C353.661 415.644 354.167 415.05 355.773 415.05H358.127V416.26C357.731 417.338 356.741 417.866 355.597 417.866ZM370.173 420.176C372.659 420.176 374.617 419.076 375.475 417.184L372.813 415.732C372.175 416.876 371.229 417.36 370.151 417.36C368.413 417.36 367.049 416.15 367.049 414.082C367.049 412.014 368.413 410.804 370.151 410.804C371.229 410.804 372.175 411.31 372.813 412.432L375.475 411.002C374.617 409.066 372.659 407.988 370.173 407.988C366.323 407.988 363.573 410.518 363.573 414.082C363.573 417.646 366.323 420.176 370.173 420.176ZM382.158 407.988C380.266 407.988 378.352 408.494 377.054 409.418L378.286 411.816C379.144 411.134 380.442 410.716 381.696 410.716C383.544 410.716 384.424 411.574 384.424 413.048H381.696C378.088 413.048 376.614 414.5 376.614 416.59C376.614 418.636 378.264 420.176 381.036 420.176C382.774 420.176 384.006 419.604 384.644 418.526V420H387.856V413.246C387.856 409.66 385.766 407.988 382.158 407.988ZM381.894 417.866C380.684 417.866 379.958 417.294 379.958 416.436C379.958 415.644 380.464 415.05 382.07 415.05H384.424V416.26C384.028 417.338 383.038 417.866 381.894 417.866Z" fill="white"/>
<path opacity="0.6" d="M298.27 440.07C299.31 440.07 300.14 439.62 300.55 438.82L299.59 438.26C299.27 438.77 298.79 439 298.26 439C297.34 439 296.64 438.37 296.64 437.33C296.64 436.3 297.34 435.66 298.26 435.66C298.79 435.66 299.27 435.89 299.59 436.4L300.55 435.84C300.14 435.03 299.31 434.6 298.27 434.6C296.58 434.6 295.38 435.73 295.38 437.33C295.38 438.93 296.58 440.07 298.27 440.07ZM304.611 434.6C303.881 434.6 303.261 434.85 302.841 435.36V434.66H301.651V441.94H302.901V439.35C303.331 439.84 303.931 440.07 304.611 440.07C306.171 440.07 307.321 438.99 307.321 437.33C307.321 435.68 306.171 434.6 304.611 434.6ZM304.471 439C303.571 439 302.881 438.35 302.881 437.33C302.881 436.31 303.571 435.66 304.471 435.66C305.371 435.66 306.051 436.31 306.051 437.33C306.051 438.35 305.371 439 304.471 439ZM313.565 437.36C313.565 435.69 312.425 434.6 310.865 434.6C309.275 434.6 308.105 435.74 308.105 437.33C308.105 438.92 309.265 440.07 311.055 440.07C311.975 440.07 312.725 439.77 313.205 439.2L312.535 438.43C312.155 438.82 311.685 439.01 311.085 439.01C310.155 439.01 309.505 438.51 309.355 437.73H313.545C313.555 437.61 313.565 437.46 313.565 437.36ZM310.865 435.6C311.685 435.6 312.275 436.13 312.375 436.9H309.345C309.465 436.12 310.055 435.6 310.865 435.6ZM319.773 438.94V434.66H315.373L315.303 436.49C315.243 437.74 315.113 438.91 314.363 438.94H314.113V441.19H315.273V440H319.393V441.19H320.563V438.94H319.773ZM316.443 436.58L316.473 435.72H318.523V438.94H315.893C316.323 438.53 316.403 437.58 316.443 436.58ZM321.68 440H322.93V437.89H325.62V440H326.87V434.66H325.62V436.83H322.93V434.66H321.68V440ZM333.545 437.36C333.545 435.69 332.405 434.6 330.845 434.6C329.255 434.6 328.085 435.74 328.085 437.33C328.085 438.92 329.245 440.07 331.035 440.07C331.955 440.07 332.705 439.77 333.185 439.2L332.515 438.43C332.135 438.82 331.665 439.01 331.065 439.01C330.135 439.01 329.485 438.51 329.335 437.73H333.525C333.535 437.61 333.545 437.46 333.545 437.36ZM330.845 435.6C331.665 435.6 332.255 436.13 332.355 436.9H329.325C329.445 436.12 330.035 435.6 330.845 435.6ZM339.912 437.36C339.912 435.69 338.772 434.6 337.212 434.6C335.622 434.6 334.452 435.74 334.452 437.33C334.452 438.92 335.612 440.07 337.402 440.07C338.322 440.07 339.072 439.77 339.552 439.2L338.882 438.43C338.502 438.82 338.032 439.01 337.432 439.01C336.502 439.01 335.852 438.51 335.702 437.73H339.892C339.902 437.61 339.912 437.46 339.912 437.36ZM337.212 435.6C338.032 435.6 338.622 436.13 338.722 436.9H335.692C335.812 436.12 336.402 435.6 337.212 435.6ZM347.913 437.22C348.423 437 348.733 436.59 348.733 436.04C348.733 435.16 347.953 434.66 346.653 434.66H344.043V440H346.763C348.203 440 348.903 439.44 348.903 438.5C348.903 437.85 348.573 437.42 347.913 437.22ZM345.233 435.57H346.543C347.183 435.57 347.513 435.78 347.513 436.22C347.513 436.66 347.183 436.89 346.543 436.89H345.233V435.57ZM346.663 439.09H345.233V437.72H346.703C347.383 437.72 347.693 437.95 347.693 438.42C347.693 438.88 347.333 439.09 346.663 439.09ZM353.195 434.6C352.465 434.6 351.845 434.85 351.425 435.36V434.66H350.235V441.94H351.485V439.35C351.915 439.84 352.515 440.07 353.195 440.07C354.755 440.07 355.905 438.99 355.905 437.33C355.905 435.68 354.755 434.6 353.195 434.6ZM353.055 439C352.155 439 351.465 438.35 351.465 437.33C351.465 436.31 352.155 435.66 353.055 435.66C353.955 435.66 354.635 436.31 354.635 437.33C354.635 438.35 353.955 439 353.055 439ZM362.149 437.36C362.149 435.69 361.009 434.6 359.449 434.6C357.859 434.6 356.689 435.74 356.689 437.33C356.689 438.92 357.849 440.07 359.639 440.07C360.559 440.07 361.309 439.77 361.789 439.2L361.119 438.43C360.739 438.82 360.269 439.01 359.669 439.01C358.739 439.01 358.089 438.51 357.939 437.73H362.129C362.139 437.61 362.149 437.46 362.149 437.36ZM359.449 435.6C360.269 435.6 360.859 436.13 360.959 436.9H357.929C358.049 436.12 358.639 435.6 359.449 435.6ZM369.896 440L369.886 434.66H368.716L366.726 438L364.826 434.66H363.516V440H364.656V436.45L366.426 439.44H366.966L368.766 436.46V440H369.896ZM373.632 434.66C372.142 434.66 371.192 435.33 371.192 436.58C371.192 437.4 371.622 437.96 372.382 438.22L371.122 440H372.462L373.552 438.39H374.962V440H376.082V434.66H373.632ZM373.672 435.71H374.962V437.52H373.632C372.862 437.52 372.462 437.24 372.462 436.62C372.462 435.98 372.902 435.71 373.672 435.71ZM299.71 449.22C300.22 449 300.53 448.59 300.53 448.04C300.53 447.16 299.75 446.66 298.45 446.66H295.84V452H298.56C300 452 300.7 451.44 300.7 450.5C300.7 449.85 300.37 449.42 299.71 449.22ZM297.03 447.57H298.34C298.98 447.57 299.31 447.78 299.31 448.22C299.31 448.66 298.98 448.89 298.34 448.89H297.03V447.57ZM298.46 451.09H297.03V449.72H298.5C299.18 449.72 299.49 449.95 299.49 450.42C299.49 450.88 299.13 451.09 298.46 451.09ZM304.631 448.42L303.281 448.41V446.66H302.031V452L304.451 452.01C305.911 452.02 306.731 451.35 306.731 450.18C306.731 449.07 306.001 448.42 304.631 448.42ZM307.421 452H308.671V446.66H307.421V452ZM304.341 451.09L303.281 451.08V449.27L304.341 449.28C305.081 449.29 305.471 449.55 305.471 450.16C305.471 450.78 305.071 451.1 304.341 451.09ZM310.352 446.66V452H311.602V447.72H314.232V452H315.472V446.66H310.352ZM319.538 452.07C321.198 452.07 322.388 450.93 322.388 449.33C322.388 447.73 321.198 446.6 319.538 446.6C317.898 446.6 316.698 447.73 316.698 449.33C316.698 450.93 317.898 452.07 319.538 452.07ZM319.538 451C318.638 451 317.958 450.35 317.958 449.33C317.958 448.31 318.638 447.66 319.538 447.66C320.448 447.66 321.128 448.31 321.128 449.33C321.128 450.35 320.448 451 319.538 451ZM324.085 446.66L323.995 448.72C323.935 449.83 323.905 450.97 323.085 450.97C323.015 450.97 322.935 450.96 322.845 450.94L322.785 451.99C323.045 452.06 323.275 452.1 323.475 452.1C324.735 452.1 325.015 450.68 325.105 448.78L325.155 447.72H327.155V452H328.405V446.66H324.085ZM330.088 452H331.338V449.89H334.028V452H335.278V446.66H334.028V448.83H331.338V446.66H330.088V452ZM341.953 449.36C341.953 447.69 340.813 446.6 339.253 446.6C337.663 446.6 336.493 447.74 336.493 449.33C336.493 450.92 337.653 452.07 339.443 452.07C340.363 452.07 341.113 451.77 341.593 451.2L340.923 450.43C340.543 450.82 340.073 451.01 339.473 451.01C338.543 451.01 337.893 450.51 337.743 449.73H341.933C341.943 449.61 341.953 449.46 341.953 449.36ZM339.253 447.6C340.073 447.6 340.663 448.13 340.763 448.9H337.733C337.853 448.12 338.443 447.6 339.253 447.6ZM343.32 452H344.57V449.89H347.26V452H348.51V446.66H347.26V448.83H344.57V446.66H343.32V452ZM350.186 452H351.336L354.276 448.48V452H355.526V446.66H354.386L351.436 450.18V446.66H350.186V452ZM359.267 446.66C357.777 446.66 356.827 447.33 356.827 448.58C356.827 449.4 357.257 449.96 358.017 450.22L356.757 452H358.097L359.187 450.39H360.597V452H361.717V446.66H359.267ZM359.307 447.71H360.597V449.52H359.267C358.497 449.52 358.097 449.24 358.097 448.62C358.097 447.98 358.537 447.71 359.307 447.71ZM369.352 449.22C369.902 449 370.252 448.57 370.252 448.05C370.252 447.17 369.252 446.58 367.882 446.58C367.182 446.58 366.492 446.73 365.762 447.07L366.082 447.99C366.672 447.73 367.232 447.6 367.772 447.6C368.522 447.6 368.972 447.84 368.972 448.23C368.972 448.62 368.602 448.84 367.972 448.84H367.032V449.68H368.072C368.742 449.68 369.122 449.91 369.122 450.33C369.122 450.79 368.612 451.06 367.782 451.06C367.122 451.06 366.442 450.89 365.922 450.6L365.562 451.53C366.202 451.89 367.022 452.09 367.842 452.09C369.332 452.09 370.402 451.42 370.402 450.43C370.402 449.84 370.012 449.41 369.352 449.22ZM373.68 446.6C372.82 446.6 371.99 446.82 371.42 447.26L371.91 448.17C372.31 447.84 372.93 447.64 373.53 447.64C374.42 447.64 374.86 448.07 374.86 448.8V448.88H373.48C371.86 448.88 371.26 449.58 371.26 450.47C371.26 451.4 372.03 452.07 373.25 452.07C374.05 452.07 374.63 451.81 374.93 451.35V452H376.11V448.87C376.11 447.33 375.22 446.6 373.68 446.6ZM373.51 451.16C372.87 451.16 372.49 450.87 372.49 450.42C372.49 450.03 372.72 449.71 373.57 449.71H374.86V450.33C374.65 450.88 374.12 451.16 373.51 451.16ZM382.566 450.94V446.66H378.166L378.096 448.49C378.036 449.74 377.906 450.91 377.156 450.94H376.906V453.19H378.066V452H382.186V453.19H383.356V450.94H382.566ZM379.236 448.58L379.266 447.72H381.316V450.94H378.686C379.116 450.53 379.196 449.58 379.236 448.58ZM386.463 446.6C385.603 446.6 384.773 446.82 384.203 447.26L384.693 448.17C385.093 447.84 385.713 447.64 386.313 447.64C387.203 447.64 387.643 448.07 387.643 448.8V448.88H386.263C384.643 448.88 384.043 449.58 384.043 450.47C384.043 451.4 384.813 452.07 386.033 452.07C386.833 452.07 387.413 451.81 387.713 451.35V452H388.893V448.87C388.893 447.33 388.003 446.6 386.463 446.6ZM386.293 451.16C385.653 451.16 385.273 450.87 385.273 450.42C385.273 450.03 385.503 449.71 386.353 449.71H387.643V450.33C387.433 450.88 386.903 451.16 386.293 451.16ZM393.72 446.66V449C393.29 449.2 392.82 449.3 392.38 449.3C391.66 449.3 391.23 448.99 391.23 448.29V446.66H389.98V448.37C389.98 449.7 390.76 450.3 392.11 450.3C392.7 450.3 393.24 450.16 393.72 449.93V452H394.97V446.66H393.72ZM396.651 452H397.801L400.741 448.48V452H401.991V446.66H400.851L397.901 450.18V446.66H396.651V452Z" fill="white"/>
</g>
<g filter="url(#filter5_d_94:310)">
<rect x="-214" y="100" width="675" height="46" fill="white"/>
</g>
<g filter="url(#filter6_d_94:310)">
<rect x="-55" y="183" width="111" height="63" rx="3" fill="white"/>
</g>
<path d="M12.9915 200H14.0205L12.2845 197.473L13.9575 195.1H12.9915L11.5845 197.151H10.6465V195.1H9.75045V200H10.6465V197.935H11.5565L12.9915 200ZM16.1583 200.049C17.3203 200.049 18.1533 199.251 18.1533 198.131C18.1533 197.011 17.3203 196.22 16.1583 196.22C15.0103 196.22 14.1703 197.011 14.1703 198.131C14.1703 199.251 15.0103 200.049 16.1583 200.049ZM16.1583 199.3C15.5283 199.3 15.0523 198.845 15.0523 198.131C15.0523 197.417 15.5283 196.962 16.1583 196.962C16.7953 196.962 17.2713 197.417 17.2713 198.131C17.2713 198.845 16.7953 199.3 16.1583 199.3ZM23.4837 200L23.4767 196.262H22.6577L21.2647 198.6L19.9347 196.262H19.0177V200H19.8157V197.515L21.0547 199.608H21.4327L22.6927 197.522V200H23.4837ZM26.0503 196.22C25.4483 196.22 24.8673 196.374 24.4683 196.682L24.8113 197.319C25.0913 197.088 25.5253 196.948 25.9453 196.948C26.5683 196.948 26.8763 197.249 26.8763 197.76V197.816H25.9103C24.7763 197.816 24.3563 198.306 24.3563 198.929C24.3563 199.58 24.8953 200.049 25.7493 200.049C26.3093 200.049 26.7153 199.867 26.9253 199.545V200H27.7513V197.809C27.7513 196.731 27.1283 196.22 26.0503 196.22ZM25.9313 199.412C25.4833 199.412 25.2173 199.209 25.2173 198.894C25.2173 198.621 25.3783 198.397 25.9733 198.397H26.8763V198.831C26.7293 199.216 26.3583 199.412 25.9313 199.412ZM28.8341 200H29.7091V198.523H31.5921V200H32.4671V196.262H31.5921V197.781H29.7091V196.262H28.8341V200ZM37.0768 199.258V196.262H33.9968L33.9478 197.543C33.9058 198.418 33.8148 199.237 33.2898 199.258H33.1148V200.833H33.9268V200H36.8108V200.833H37.6298V199.258H37.0768ZM34.7458 197.606L34.7668 197.004H36.2018V199.258H34.3608C34.6618 198.971 34.7178 198.306 34.7458 197.606ZM39.8042 196.22C39.2022 196.22 38.6212 196.374 38.2222 196.682L38.5652 197.319C38.8452 197.088 39.2792 196.948 39.6992 196.948C40.3222 196.948 40.6302 197.249 40.6302 197.76V197.816H39.6642C38.5302 197.816 38.1102 198.306 38.1102 198.929C38.1102 199.58 38.6492 200.049 39.5032 200.049C40.0632 200.049 40.4692 199.867 40.6792 199.545V200H41.5052V197.809C41.5052 196.731 40.8822 196.22 39.8042 196.22ZM39.6852 199.412C39.2372 199.412 38.9712 199.209 38.9712 198.894C38.9712 198.621 39.1322 198.397 39.7272 198.397H40.6302V198.831C40.4832 199.216 40.1122 199.412 39.6852 199.412Z" fill="#4A83FB"/>
<path opacity="0.7" d="M31.1306 217.8V229H29.5466V219.192H27.0186V217.8H31.1306ZM36.7805 222.264C38.3805 222.264 39.5538 222.568 40.3005 223.176C41.0578 223.773 41.4365 224.595 41.4365 225.64C41.4365 226.301 41.2765 226.899 40.9565 227.432C40.6472 227.955 40.1725 228.371 39.5325 228.68C38.9032 228.979 38.1245 229.128 37.1965 229.128C36.4072 229.128 35.6445 229.011 34.9085 228.776C34.1725 228.531 33.5645 228.195 33.0845 227.768L33.8205 226.504C34.2045 226.867 34.6952 227.16 35.2925 227.384C35.8898 227.597 36.5192 227.704 37.1805 227.704C38.0232 227.704 38.6738 227.528 39.1325 227.176C39.6018 226.813 39.8365 226.323 39.8365 225.704C39.8365 225.032 39.5805 224.525 39.0685 224.184C38.5565 223.832 37.6818 223.656 36.4445 223.656H33.9005L34.4925 217.8H40.8125V219.192H35.8365L35.5325 222.264H36.7805Z" fill="#303548"/>
<g filter="url(#filter7_d_94:310)">
<rect x="71" y="183" width="111" height="63" rx="3" fill="white"/>
</g>
<g filter="url(#filter8_d_94:310)">
<rect x="76" y="176" width="27" height="27" rx="2" fill="#FA6382"/>
</g>
<path d="M83 188V193C83 194.657 84.3431 196 86 196H93C94.6569 196 96 194.657 96 193V188L89.5 184L83 188Z" fill="white"/>
<path d="M135.45 195.1V200H136.346V195.87H138.887V200H139.783V195.1H135.45ZM143.139 196.22C142.628 196.22 142.194 196.395 141.9 196.752V196.262H141.067V201.358H141.942V199.545C142.243 199.888 142.663 200.049 143.139 200.049C144.231 200.049 145.036 199.293 145.036 198.131C145.036 196.976 144.231 196.22 143.139 196.22ZM143.041 199.3C142.411 199.3 141.928 198.845 141.928 198.131C141.928 197.417 142.411 196.962 143.041 196.962C143.671 196.962 144.147 197.417 144.147 198.131C144.147 198.845 143.671 199.3 143.041 199.3ZM147.572 200.049C148.734 200.049 149.567 199.251 149.567 198.131C149.567 197.011 148.734 196.22 147.572 196.22C146.424 196.22 145.584 197.011 145.584 198.131C145.584 199.251 146.424 200.049 147.572 200.049ZM147.572 199.3C146.942 199.3 146.466 198.845 146.466 198.131C146.466 197.417 146.942 196.962 147.572 196.962C148.209 196.962 148.685 197.417 148.685 198.131C148.685 198.845 148.209 199.3 147.572 199.3ZM153.932 198.152C153.932 196.983 153.134 196.22 152.042 196.22C150.929 196.22 150.11 197.018 150.11 198.131C150.11 199.244 150.922 200.049 152.175 200.049C152.819 200.049 153.344 199.839 153.68 199.44L153.211 198.901C152.945 199.174 152.616 199.307 152.196 199.307C151.545 199.307 151.09 198.957 150.985 198.411H153.918C153.925 198.327 153.932 198.222 153.932 198.152ZM152.042 196.92C152.616 196.92 153.029 197.291 153.099 197.83H150.978C151.062 197.284 151.475 196.92 152.042 196.92ZM157.57 200H158.599L157.15 198.061L158.508 196.262H157.57L156.464 197.774H155.764V196.262H154.889V200H155.764V198.502H156.443L157.57 200ZM162.129 196.262H158.629V197.004H159.945V200H160.82V197.004H162.129V196.262ZM164.584 197.494L163.639 197.487V196.262H162.764V200L164.458 200.007C165.48 200.014 166.054 199.545 166.054 198.726C166.054 197.949 165.543 197.494 164.584 197.494ZM166.537 200H167.412V196.262H166.537V200ZM164.381 199.363L163.639 199.356V198.089L164.381 198.096C164.899 198.103 165.172 198.285 165.172 198.712C165.172 199.146 164.892 199.37 164.381 199.363Z" fill="#FA6382"/>
<path opacity="0.7" d="M152.343 227.608V229H144.295V227.912L148.855 223.512C149.41 222.979 149.783 222.52 149.975 222.136C150.167 221.741 150.263 221.347 150.263 220.952C150.263 220.365 150.055 219.912 149.639 219.592C149.234 219.261 148.647 219.096 147.879 219.096C146.642 219.096 145.687 219.501 145.015 220.312L143.927 219.368C144.364 218.835 144.935 218.419 145.639 218.12C146.354 217.821 147.148 217.672 148.023 217.672C149.196 217.672 150.13 217.955 150.823 218.52C151.516 219.075 151.863 219.832 151.863 220.792C151.863 221.389 151.735 221.955 151.479 222.488C151.223 223.021 150.738 223.629 150.023 224.312L146.599 227.608H152.343ZM157.131 217.8V229H155.547V219.192H153.019V217.8H157.131ZM167.453 227.608V229H159.405V227.912L163.965 223.512C164.519 222.979 164.893 222.52 165.085 222.136C165.277 221.741 165.373 221.347 165.373 220.952C165.373 220.365 165.165 219.912 164.749 219.592C164.343 219.261 163.757 219.096 162.989 219.096C161.751 219.096 160.797 219.501 160.125 220.312L159.037 219.368C159.474 218.835 160.045 218.419 160.749 218.12C161.463 217.821 162.258 217.672 163.133 217.672C164.306 217.672 165.239 217.955 165.933 218.52C166.626 219.075 166.973 219.832 166.973 220.792C166.973 221.389 166.845 221.955 166.589 222.488C166.333 223.021 165.847 223.629 165.133 224.312L161.709 227.608H167.453Z" fill="#303548"/>
<g filter="url(#filter9_d_94:310)">
<rect x="197" y="183" width="111" height="63" rx="3" fill="white"/>
</g>
<g filter="url(#filter10_d_94:310)">
<rect x="202" y="176" width="27" height="27" rx="2" fill="#94BD59"/>
</g>
<path d="M222 190L212 183V197L222 190Z" fill="white"/>
<path d="M237.327 195.1H233.183V195.87H234.8V200H235.703V195.87H237.327V195.1ZM241.131 198.152C241.131 196.983 240.333 196.22 239.241 196.22C238.128 196.22 237.309 197.018 237.309 198.131C237.309 199.244 238.121 200.049 239.374 200.049C240.018 200.049 240.543 199.839 240.879 199.44L240.41 198.901C240.144 199.174 239.815 199.307 239.395 199.307C238.744 199.307 238.289 198.957 238.184 198.411H241.117C241.124 198.327 241.131 198.222 241.131 198.152ZM239.241 196.92C239.815 196.92 240.228 197.291 240.298 197.83H238.177C238.261 197.284 238.674 196.92 239.241 196.92ZM244.769 200H245.798L244.349 198.061L245.707 196.262H244.769L243.663 197.774H242.963V196.262H242.088V200H242.963V198.502H243.642L244.769 200ZM248.891 196.262L247.708 199.027L246.532 196.262H245.622L247.253 200.014L247.19 200.161C247.022 200.532 246.84 200.679 246.532 200.679C246.294 200.679 246.056 200.581 245.888 200.42L245.538 201.064C245.776 201.281 246.168 201.407 246.539 201.407C247.162 201.407 247.638 201.148 247.981 200.301L249.731 196.262H248.891ZM255.848 199.258V196.262H254.973V199.258H253.538V196.262H252.663V199.258H251.214V196.262H250.339V200H255.568V200.77H256.387V199.258H255.848ZM257.025 200H257.83L259.888 197.536V200H260.763V196.262H259.965L257.9 198.726V196.262H257.025V200ZM265.44 198.152C265.44 196.983 264.642 196.22 263.55 196.22C262.437 196.22 261.618 197.018 261.618 198.131C261.618 199.244 262.43 200.049 263.683 200.049C264.327 200.049 264.852 199.839 265.188 199.44L264.719 198.901C264.453 199.174 264.124 199.307 263.704 199.307C263.053 199.307 262.598 198.957 262.493 198.411H265.426C265.433 198.327 265.44 198.222 265.44 198.152ZM263.55 196.92C264.124 196.92 264.537 197.291 264.607 197.83H262.486C262.57 197.284 262.983 196.92 263.55 196.92ZM270.564 198.054C270.949 197.9 271.194 197.599 271.194 197.235C271.194 196.619 270.494 196.206 269.535 196.206C269.045 196.206 268.562 196.311 268.051 196.549L268.275 197.193C268.688 197.011 269.08 196.92 269.458 196.92C269.983 196.92 270.298 197.088 270.298 197.361C270.298 197.634 270.039 197.788 269.598 197.788H268.94V198.376H269.668C270.137 198.376 270.403 198.537 270.403 198.831C270.403 199.153 270.046 199.342 269.465 199.342C269.003 199.342 268.527 199.223 268.163 199.02L267.911 199.671C268.359 199.923 268.933 200.063 269.507 200.063C270.55 200.063 271.299 199.594 271.299 198.901C271.299 198.488 271.026 198.187 270.564 198.054ZM273.593 196.22C272.991 196.22 272.41 196.374 272.011 196.682L272.354 197.319C272.634 197.088 273.068 196.948 273.488 196.948C274.111 196.948 274.419 197.249 274.419 197.76V197.816H273.453C272.319 197.816 271.899 198.306 271.899 198.929C271.899 199.58 272.438 200.049 273.292 200.049C273.852 200.049 274.258 199.867 274.468 199.545V200H275.294V197.809C275.294 196.731 274.671 196.22 273.593 196.22ZM273.474 199.412C273.026 199.412 272.76 199.209 272.76 198.894C272.76 198.621 272.921 198.397 273.516 198.397H274.419V198.831C274.272 199.216 273.901 199.412 273.474 199.412ZM279.814 199.258V196.262H276.734L276.685 197.543C276.643 198.418 276.552 199.237 276.027 199.258H275.852V200.833H276.664V200H279.548V200.833H280.367V199.258H279.814ZM277.483 197.606L277.504 197.004H278.939V199.258H277.098C277.399 198.971 277.455 198.306 277.483 197.606ZM282.542 196.22C281.94 196.22 281.359 196.374 280.96 196.682L281.303 197.319C281.583 197.088 282.017 196.948 282.437 196.948C283.06 196.948 283.368 197.249 283.368 197.76V197.816H282.402C281.268 197.816 280.848 198.306 280.848 198.929C280.848 199.58 281.387 200.049 282.241 200.049C282.801 200.049 283.207 199.867 283.417 199.545V200H284.243V197.809C284.243 196.731 283.62 196.22 282.542 196.22ZM282.423 199.412C281.975 199.412 281.709 199.209 281.709 198.894C281.709 198.621 281.87 198.397 282.465 198.397H283.368V198.831C283.221 199.216 282.85 199.412 282.423 199.412ZM287.621 196.262V197.9C287.32 198.04 286.991 198.11 286.683 198.11C286.179 198.11 285.878 197.893 285.878 197.403V196.262H285.003V197.459C285.003 198.39 285.549 198.81 286.494 198.81C286.907 198.81 287.285 198.712 287.621 198.551V200H288.496V196.262H287.621ZM289.673 200H290.478L292.536 197.536V200H293.411V196.262H292.613L290.548 198.726V196.262H289.673V200Z" fill="#94BD59"/>
<path opacity="0.7" d="M283.937 227.608V229H275.889V227.912L280.449 223.512C281.004 222.979 281.377 222.52 281.569 222.136C281.761 221.741 281.857 221.347 281.857 220.952C281.857 220.365 281.649 219.912 281.233 219.592C280.828 219.261 280.241 219.096 279.473 219.096C278.236 219.096 277.281 219.501 276.609 220.312L275.521 219.368C275.958 218.835 276.529 218.419 277.233 218.12C277.948 217.821 278.742 217.672 279.617 217.672C280.79 217.672 281.724 217.955 282.417 218.52C283.11 219.075 283.457 219.832 283.457 220.792C283.457 221.389 283.329 221.955 283.073 222.488C282.817 223.021 282.332 223.629 281.617 224.312L278.193 227.608H283.937ZM293.366 217.8V218.888L288.838 229H287.142L291.574 219.192H286.454V221.192H284.918V217.8H293.366Z" fill="#303548"/>
<g filter="url(#filter11_d_94:310)">
<rect x="323" y="183" width="111" height="63" rx="3" fill="white"/>
</g>
<g filter="url(#filter12_d_94:310)">
<rect x="328" y="176" width="27" height="27" rx="2" fill="#FDB557"/>
</g>
<path d="M338.506 194.421L335.485 196.146C335.308 196.247 335.148 196.372 335 196.507C336.761 198.062 339.035 199 341.519 199C343.985 199 346.244 198.076 348 196.542C347.838 196.399 347.662 196.27 347.467 196.169L344.233 194.475C343.815 194.257 343.551 193.809 343.551 193.32V191.991C343.642 191.883 343.745 191.744 343.857 191.579C344.298 190.927 344.631 190.21 344.862 189.458C345.277 189.324 345.583 188.923 345.583 188.446V187.027C345.583 186.715 345.45 186.437 345.244 186.241V184.191C345.244 184.191 345.647 181 341.519 181C337.392 181 337.794 184.191 337.794 184.191V186.241C337.588 186.437 337.456 186.715 337.456 187.027V188.446C337.456 188.819 337.643 189.148 337.924 189.338C338.263 190.881 339.149 191.991 339.149 191.991V193.287C339.149 193.759 338.902 194.194 338.506 194.421Z" fill="white"/>
<path d="M367.639 195.1V200H368.535V195.87H371.076V200H371.972V195.1H367.639ZM374.922 200.049C376.084 200.049 376.917 199.251 376.917 198.131C376.917 197.011 376.084 196.22 374.922 196.22C373.774 196.22 372.934 197.011 372.934 198.131C372.934 199.251 373.774 200.049 374.922 200.049ZM374.922 199.3C374.292 199.3 373.816 198.845 373.816 198.131C373.816 197.417 374.292 196.962 374.922 196.962C375.559 196.962 376.035 197.417 376.035 198.131C376.035 198.845 375.559 199.3 374.922 199.3ZM378.104 196.262L378.041 197.704C377.999 198.481 377.978 199.279 377.404 199.279C377.355 199.279 377.299 199.272 377.236 199.258L377.194 199.993C377.376 200.042 377.537 200.07 377.677 200.07C378.559 200.07 378.755 199.076 378.818 197.746L378.853 197.004H380.253V200H381.128V196.262H378.104ZM384.183 197.494L383.182 197.487V196.262H382.307V200L384.057 200.007C385.079 200.014 385.66 199.545 385.66 198.726C385.66 197.949 385.142 197.494 384.183 197.494ZM383.98 199.363L383.182 199.356V198.089L383.98 198.096C384.498 198.103 384.771 198.285 384.771 198.712C384.771 199.146 384.491 199.37 383.98 199.363ZM388.593 198.054C388.978 197.9 389.223 197.599 389.223 197.235C389.223 196.619 388.523 196.206 387.564 196.206C387.074 196.206 386.591 196.311 386.08 196.549L386.304 197.193C386.717 197.011 387.109 196.92 387.487 196.92C388.012 196.92 388.327 197.088 388.327 197.361C388.327 197.634 388.068 197.788 387.627 197.788H386.969V198.376H387.697C388.166 198.376 388.432 198.537 388.432 198.831C388.432 199.153 388.075 199.342 387.494 199.342C387.032 199.342 386.556 199.223 386.192 199.02L385.94 199.671C386.388 199.923 386.962 200.063 387.536 200.063C388.579 200.063 389.328 199.594 389.328 198.901C389.328 198.488 389.055 198.187 388.593 198.054ZM391.896 200.049C393.058 200.049 393.891 199.251 393.891 198.131C393.891 197.011 393.058 196.22 391.896 196.22C390.748 196.22 389.908 197.011 389.908 198.131C389.908 199.251 390.748 200.049 391.896 200.049ZM391.896 199.3C391.266 199.3 390.79 198.845 390.79 198.131C390.79 197.417 391.266 196.962 391.896 196.962C392.533 196.962 393.009 197.417 393.009 198.131C393.009 198.845 392.533 199.3 391.896 199.3ZM397.464 198.054C397.821 197.9 398.038 197.613 398.038 197.228C398.038 196.612 397.492 196.262 396.582 196.262H394.755V200H396.659C397.667 200 398.157 199.608 398.157 198.95C398.157 198.495 397.926 198.194 397.464 198.054ZM395.588 196.899H396.505C396.953 196.899 397.184 197.046 397.184 197.354C397.184 197.662 396.953 197.823 396.505 197.823H395.588V196.899ZM396.589 199.363H395.588V198.404H396.617C397.093 198.404 397.31 198.565 397.31 198.894C397.31 199.216 397.058 199.363 396.589 199.363ZM400.482 196.22C399.88 196.22 399.299 196.374 398.9 196.682L399.243 197.319C399.523 197.088 399.957 196.948 400.377 196.948C401 196.948 401.308 197.249 401.308 197.76V197.816H400.342C399.208 197.816 398.788 198.306 398.788 198.929C398.788 199.58 399.327 200.049 400.181 200.049C400.741 200.049 401.147 199.867 401.357 199.545V200H402.183V197.809C402.183 196.731 401.56 196.22 400.482 196.22ZM400.363 199.412C399.915 199.412 399.649 199.209 399.649 198.894C399.649 198.621 399.81 198.397 400.405 198.397H401.308V198.831C401.161 199.216 400.79 199.412 400.363 199.412ZM406.227 196.262H402.727V197.004H404.043V200H404.918V197.004H406.227V196.262ZM410.197 198.152C410.197 196.983 409.399 196.22 408.307 196.22C407.194 196.22 406.375 197.018 406.375 198.131C406.375 199.244 407.187 200.049 408.44 200.049C409.084 200.049 409.609 199.839 409.945 199.44L409.476 198.901C409.21 199.174 408.881 199.307 408.461 199.307C407.81 199.307 407.355 198.957 407.25 198.411H410.183C410.19 198.327 410.197 198.222 410.197 198.152ZM408.307 196.92C408.881 196.92 409.294 197.291 409.364 197.83H407.243C407.327 197.284 407.74 196.92 408.307 196.92ZM411.471 196.262L411.408 197.704C411.366 198.481 411.345 199.279 410.771 199.279C410.722 199.279 410.666 199.272 410.603 199.258L410.561 199.993C410.743 200.042 410.904 200.07 411.044 200.07C411.926 200.07 412.122 199.076 412.185 197.746L412.22 197.004H413.62V200H414.495V196.262H411.471ZM415.673 200H416.478L418.536 197.536V200H419.411V196.262H418.613L416.548 198.726V196.262H415.673V200Z" fill="#FDB557"/>
<path opacity="0.7" d="M351.24 217.8V229H349.656V219.192H347.128V217.8H351.24ZM358.266 229.128C357.381 229.128 356.591 228.904 355.898 228.456C355.215 227.997 354.677 227.336 354.282 226.472C353.887 225.608 353.69 224.584 353.69 223.4C353.69 222.216 353.887 221.192 354.282 220.328C354.677 219.464 355.215 218.808 355.898 218.36C356.591 217.901 357.381 217.672 358.266 217.672C359.141 217.672 359.919 217.901 360.602 218.36C361.295 218.808 361.839 219.464 362.234 220.328C362.629 221.192 362.826 222.216 362.826 223.4C362.826 224.584 362.629 225.608 362.234 226.472C361.839 227.336 361.295 227.997 360.602 228.456C359.919 228.904 359.141 229.128 358.266 229.128ZM358.266 227.704C359.162 227.704 359.877 227.336 360.41 226.6C360.954 225.864 361.226 224.797 361.226 223.4C361.226 222.003 360.954 220.936 360.41 220.2C359.877 219.464 359.162 219.096 358.266 219.096C357.359 219.096 356.634 219.464 356.09 220.2C355.557 220.936 355.29 222.003 355.29 223.4C355.29 224.797 355.557 225.864 356.09 226.6C356.634 227.336 357.359 227.704 358.266 227.704ZM368.938 229.128C368.052 229.128 367.263 228.904 366.57 228.456C365.887 227.997 365.348 227.336 364.954 226.472C364.559 225.608 364.362 224.584 364.362 223.4C364.362 222.216 364.559 221.192 364.954 220.328C365.348 219.464 365.887 218.808 366.57 218.36C367.263 217.901 368.052 217.672 368.938 217.672C369.812 217.672 370.591 217.901 371.274 218.36C371.967 218.808 372.511 219.464 372.906 220.328C373.3 221.192 373.498 222.216 373.498 223.4C373.498 224.584 373.3 225.608 372.906 226.472C372.511 227.336 371.967 227.997 371.274 228.456C370.591 228.904 369.812 229.128 368.938 229.128ZM368.938 227.704C369.834 227.704 370.548 227.336 371.082 226.6C371.626 225.864 371.898 224.797 371.898 223.4C371.898 222.003 371.626 220.936 371.082 220.2C370.548 219.464 369.834 219.096 368.938 219.096C368.031 219.096 367.306 219.464 366.762 220.2C366.228 220.936 365.962 222.003 365.962 223.4C365.962 224.797 366.228 225.864 366.762 226.6C367.306 227.336 368.031 227.704 368.938 227.704ZM383.907 229.128C383.021 229.128 382.232 228.904 381.539 228.456C380.856 227.997 380.317 227.336 379.923 226.472C379.528 225.608 379.331 224.584 379.331 223.4C379.331 222.216 379.528 221.192 379.923 220.328C380.317 219.464 380.856 218.808 381.539 218.36C382.232 217.901 383.021 217.672 383.907 217.672C384.781 217.672 385.56 217.901 386.243 218.36C386.936 218.808 387.48 219.464 387.875 220.328C388.269 221.192 388.467 222.216 388.467 223.4C388.467 224.584 388.269 225.608 387.875 226.472C387.48 227.336 386.936 227.997 386.243 228.456C385.56 228.904 384.781 229.128 383.907 229.128ZM383.907 227.704C384.803 227.704 385.517 227.336 386.051 226.6C386.595 225.864 386.867 224.797 386.867 223.4C386.867 222.003 386.595 220.936 386.051 220.2C385.517 219.464 384.803 219.096 383.907 219.096C383 219.096 382.275 219.464 381.731 220.2C381.197 220.936 380.931 222.003 380.931 223.4C380.931 224.797 381.197 225.864 381.731 226.6C382.275 227.336 383 227.704 383.907 227.704ZM394.578 229.128C393.693 229.128 392.904 228.904 392.21 228.456C391.528 227.997 390.989 227.336 390.594 226.472C390.2 225.608 390.002 224.584 390.002 223.4C390.002 222.216 390.2 221.192 390.594 220.328C390.989 219.464 391.528 218.808 392.21 218.36C392.904 217.901 393.693 217.672 394.578 217.672C395.453 217.672 396.232 217.901 396.914 218.36C397.608 218.808 398.152 219.464 398.546 220.328C398.941 221.192 399.138 222.216 399.138 223.4C399.138 224.584 398.941 225.608 398.546 226.472C398.152 227.336 397.608 227.997 396.914 228.456C396.232 228.904 395.453 229.128 394.578 229.128ZM394.578 227.704C395.474 227.704 396.189 227.336 396.722 226.6C397.266 225.864 397.538 224.797 397.538 223.4C397.538 222.003 397.266 220.936 396.722 220.2C396.189 219.464 395.474 219.096 394.578 219.096C393.672 219.096 392.946 219.464 392.402 220.2C391.869 220.936 391.602 222.003 391.602 223.4C391.602 224.797 391.869 225.864 392.402 226.6C392.946 227.336 393.672 227.704 394.578 227.704ZM405.25 229.128C404.365 229.128 403.576 228.904 402.882 228.456C402.2 227.997 401.661 227.336 401.266 226.472C400.872 225.608 400.674 224.584 400.674 223.4C400.674 222.216 400.872 221.192 401.266 220.328C401.661 219.464 402.2 218.808 402.882 218.36C403.576 217.901 404.365 217.672 405.25 217.672C406.125 217.672 406.904 217.901 407.586 218.36C408.28 218.808 408.824 219.464 409.218 220.328C409.613 221.192 409.81 222.216 409.81 223.4C409.81 224.584 409.613 225.608 409.218 226.472C408.824 227.336 408.28 227.997 407.586 228.456C406.904 228.904 406.125 229.128 405.25 229.128ZM405.25 227.704C406.146 227.704 406.861 227.336 407.394 226.6C407.938 225.864 408.21 224.797 408.21 223.4C408.21 222.003 407.938 220.936 407.394 220.2C406.861 219.464 406.146 219.096 405.25 219.096C404.344 219.096 403.618 219.464 403.074 220.2C402.541 220.936 402.274 222.003 402.274 223.4C402.274 224.797 402.541 225.864 403.074 226.6C403.618 227.336 404.344 227.704 405.25 227.704ZM418.928 224.04H416.016V226.904H414.672V224.04H411.76V222.776H414.672V219.896H416.016V222.776H418.928V224.04Z" fill="#303548"/>
<g filter="url(#filter13_d_94:310)">
<rect x="-55" y="264" width="321" height="208" rx="3" fill="white"/>
</g>
<path d="M244.489 284.336L240.801 285.768V286.632L244.489 288.064V287.232L241.729 286.2L244.489 285.168V284.336Z" fill="#303548"/>
<path opacity="0.1" d="M-25 310L245 310" stroke="black" stroke-dasharray="3 3"/>
<path opacity="0.1" d="M-25 335L245 335" stroke="black" stroke-dasharray="3 3"/>
<path opacity="0.1" d="M-25 359L245 359" stroke="black" stroke-dasharray="3 3"/>
<path opacity="0.1" d="M-25 383L245 383" stroke="black" stroke-dasharray="3 3"/>
<path opacity="0.1" d="M-25 407L245 407" stroke="black" stroke-dasharray="3 3"/>
<path opacity="0.3" d="M-25 432L245 432" stroke="black" stroke-dasharray="3 3"/>
<path d="M11.8545 439.706C11.8545 439.388 12.0045 439.238 12.2805 439.238C12.4245 439.238 12.5565 439.28 12.6585 439.352L12.9045 438.674C12.7305 438.554 12.4545 438.5 12.1905 438.5C11.3865 438.5 10.9425 438.974 10.9425 439.7V439.844H10.4445V440.564H10.9425V443H11.8785V440.564H12.6825V439.844H11.8545V439.706ZM16.2698 441.398C16.2698 440.36 15.5378 439.724 14.5898 439.724C13.6058 439.724 12.8678 440.42 12.8678 441.386C12.8678 442.346 13.5938 443.048 14.7098 443.048C15.2918 443.048 15.7418 442.868 16.0418 442.526L15.5438 441.986C15.3218 442.196 15.0758 442.298 14.7338 442.298C14.2418 442.298 13.8998 442.052 13.8098 441.65H16.2518C16.2578 441.572 16.2698 441.47 16.2698 441.398ZM14.5958 440.432C15.0158 440.432 15.3218 440.696 15.3878 441.104H13.7978C13.8638 440.69 14.1698 440.432 14.5958 440.432ZM18.8009 439.724C18.3989 439.724 18.0689 439.85 17.8289 440.114V438.548H16.8929V443H17.7869V442.628C18.0209 442.91 18.3689 443.048 18.8009 443.048C19.7069 443.048 20.4089 442.4 20.4089 441.386C20.4089 440.372 19.7069 439.724 18.8009 439.724ZM18.6389 442.28C18.1709 442.28 17.8169 441.944 17.8169 441.386C17.8169 440.828 18.1709 440.492 18.6389 440.492C19.1069 440.492 19.4609 440.828 19.4609 441.386C19.4609 441.944 19.1069 442.28 18.6389 442.28Z" fill="#303548"/>
<path d="M36.776 439.724C36.29 439.724 35.87 439.922 35.612 440.252C35.384 439.898 35 439.724 34.55 439.724C34.136 439.724 33.776 439.868 33.536 440.144V439.772H32.642V443H33.578V441.38C33.578 440.804 33.872 440.534 34.286 440.534C34.676 440.534 34.898 440.774 34.898 441.296V443H35.834V441.38C35.834 440.804 36.128 440.534 36.548 440.534C36.926 440.534 37.16 440.774 37.16 441.296V443H38.096V441.152C38.096 440.168 37.544 439.724 36.776 439.724ZM40.2369 439.724C39.7209 439.724 39.1989 439.862 38.8449 440.114L39.1809 440.768C39.4149 440.582 39.7689 440.468 40.1109 440.468C40.6149 440.468 40.8549 440.702 40.8549 441.104H40.1109C39.1269 441.104 38.7249 441.5 38.7249 442.07C38.7249 442.628 39.1749 443.048 39.9309 443.048C40.4049 443.048 40.7409 442.892 40.9149 442.598V443H41.7909V441.158C41.7909 440.18 41.2209 439.724 40.2369 439.724ZM40.1649 442.418C39.8349 442.418 39.6369 442.262 39.6369 442.028C39.6369 441.812 39.7749 441.65 40.2129 441.65H40.8549V441.98C40.7469 442.274 40.4769 442.418 40.1649 442.418ZM43.5321 440.198V439.772H42.6381V443H43.5741V441.476C43.5741 440.858 43.9161 440.576 44.4321 440.576C44.5041 440.576 44.5641 440.582 44.6421 440.588V439.724C44.1441 439.724 43.7601 439.886 43.5321 440.198Z" fill="#303548"/>
<path d="M61.0192 439.724C60.5032 439.724 59.9812 439.862 59.6272 440.114L59.9632 440.768C60.1972 440.582 60.5512 440.468 60.8932 440.468C61.3972 440.468 61.6372 440.702 61.6372 441.104H60.8932C59.9092 441.104 59.5072 441.5 59.5072 442.07C59.5072 442.628 59.9572 443.048 60.7132 443.048C61.1872 443.048 61.5232 442.892 61.6972 442.598V443H62.5732V441.158C62.5732 440.18 62.0032 439.724 61.0192 439.724ZM60.9472 442.418C60.6172 442.418 60.4192 442.262 60.4192 442.028C60.4192 441.812 60.5572 441.65 60.9952 441.65H61.6372V441.98C61.5292 442.274 61.2592 442.418 60.9472 442.418ZM65.3283 439.724C64.8963 439.724 64.5483 439.862 64.3143 440.144V439.772H63.4203V444.164H64.3563V442.658C64.5963 442.922 64.9263 443.048 65.3283 443.048C66.2343 443.048 66.9363 442.4 66.9363 441.386C66.9363 440.372 66.2343 439.724 65.3283 439.724ZM65.1663 442.28C64.6983 442.28 64.3443 441.944 64.3443 441.386C64.3443 440.828 64.6983 440.492 65.1663 440.492C65.6343 440.492 65.9883 440.828 65.9883 441.386C65.9883 441.944 65.6343 442.28 65.1663 442.28ZM68.4569 440.198V439.772H67.5629V443H68.4989V441.476C68.4989 440.858 68.8409 440.576 69.3569 440.576C69.4289 440.576 69.4889 440.582 69.5669 440.588V439.724C69.0689 439.724 68.6849 439.886 68.4569 440.198Z" fill="#303548"/>
<path d="M84.8043 439.724C84.3183 439.724 83.8983 439.922 83.6403 440.252C83.4123 439.898 83.0283 439.724 82.5783 439.724C82.1643 439.724 81.8043 439.868 81.5643 440.144V439.772H80.6703V443H81.6063V441.38C81.6063 440.804 81.9003 440.534 82.3143 440.534C82.7043 440.534 82.9263 440.774 82.9263 441.296V443H83.8623V441.38C83.8623 440.804 84.1563 440.534 84.5763 440.534C84.9543 440.534 85.1883 440.774 85.1883 441.296V443H86.1243V441.152C86.1243 440.168 85.5723 439.724 84.8043 439.724ZM88.2653 439.724C87.7493 439.724 87.2273 439.862 86.8733 440.114L87.2093 440.768C87.4433 440.582 87.7973 440.468 88.1393 440.468C88.6433 440.468 88.8833 440.702 88.8833 441.104H88.1393C87.1553 441.104 86.7533 441.5 86.7533 442.07C86.7533 442.628 87.2033 443.048 87.9593 443.048C88.4333 443.048 88.7693 442.892 88.9433 442.598V443H89.8193V441.158C89.8193 440.18 89.2493 439.724 88.2653 439.724ZM88.1933 442.418C87.8633 442.418 87.6653 442.262 87.6653 442.028C87.6653 441.812 87.8033 441.65 88.2413 441.65H88.8833V441.98C88.7753 442.274 88.5053 442.418 88.1933 442.418ZM92.9118 439.772L91.9998 441.962L91.0938 439.772H90.1278L91.5258 443.024L91.5138 443.054C91.3878 443.342 91.2438 443.456 90.9858 443.456C90.7998 443.456 90.6018 443.378 90.4578 443.252L90.1158 443.918C90.3258 444.104 90.6858 444.212 91.0158 444.212C91.5978 444.212 92.0418 443.978 92.3538 443.198L93.8118 439.772H92.9118Z" fill="#303548"/>
<path d="M109.388 439.322C109.736 439.322 109.97 439.094 109.97 438.782C109.97 438.494 109.736 438.278 109.388 438.278C109.04 438.278 108.806 438.506 108.806 438.8C108.806 439.094 109.04 439.322 109.388 439.322ZM108.638 444.212C109.418 444.212 109.856 443.738 109.856 442.994V439.772H108.92V443C108.92 443.318 108.77 443.468 108.536 443.468C108.38 443.468 108.242 443.426 108.14 443.354L107.888 444.032C108.068 444.158 108.35 444.212 108.638 444.212ZM113.034 439.772V441.368C113.034 441.962 112.722 442.238 112.29 442.238C111.876 442.238 111.636 441.998 111.636 441.458V439.772H110.7V441.596C110.7 442.592 111.27 443.048 112.08 443.048C112.476 443.048 112.836 442.898 113.082 442.616V443H113.97V439.772H113.034ZM116.799 439.724C116.361 439.724 115.983 439.874 115.731 440.15V439.772H114.837V443H115.773V441.404C115.773 440.81 116.097 440.534 116.547 440.534C116.961 440.534 117.201 440.774 117.201 441.296V443H118.137V441.152C118.137 440.168 117.561 439.724 116.799 439.724Z" fill="#303548"/>
<path d="M133.06 439.322C133.408 439.322 133.642 439.094 133.642 438.782C133.642 438.494 133.408 438.278 133.06 438.278C132.712 438.278 132.478 438.506 132.478 438.8C132.478 439.094 132.712 439.322 133.06 439.322ZM132.31 444.212C133.09 444.212 133.528 443.738 133.528 442.994V439.772H132.592V443C132.592 443.318 132.442 443.468 132.208 443.468C132.052 443.468 131.914 443.426 131.812 443.354L131.56 444.032C131.74 444.158 132.022 444.212 132.31 444.212ZM136.706 439.772V441.368C136.706 441.962 136.394 442.238 135.962 442.238C135.548 442.238 135.308 441.998 135.308 441.458V439.772H134.372V441.596C134.372 442.592 134.942 443.048 135.752 443.048C136.148 443.048 136.508 442.898 136.754 442.616V443H137.642V439.772H136.706ZM138.509 443H139.445V438.548H138.509V443Z" fill="#303548"/>
<path d="M158.222 439.724C157.706 439.724 157.184 439.862 156.83 440.114L157.166 440.768C157.4 440.582 157.754 440.468 158.096 440.468C158.6 440.468 158.84 440.702 158.84 441.104H158.096C157.112 441.104 156.71 441.5 156.71 442.07C156.71 442.628 157.16 443.048 157.916 443.048C158.39 443.048 158.726 442.892 158.9 442.598V443H159.776V441.158C159.776 440.18 159.206 439.724 158.222 439.724ZM158.15 442.418C157.82 442.418 157.622 442.262 157.622 442.028C157.622 441.812 157.76 441.65 158.198 441.65H158.84V441.98C158.732 442.274 158.462 442.418 158.15 442.418ZM162.939 439.772V441.368C162.939 441.962 162.627 442.238 162.195 442.238C161.781 442.238 161.541 441.998 161.541 441.458V439.772H160.605V441.596C160.605 442.592 161.175 443.048 161.985 443.048C162.381 443.048 162.741 442.898 162.987 442.616V443H163.875V439.772H162.939ZM167.185 439.772V440.186C166.939 439.874 166.567 439.724 166.117 439.724C165.223 439.724 164.503 440.342 164.503 441.284C164.503 442.226 165.223 442.844 166.117 442.844C166.537 442.844 166.891 442.712 167.137 442.442V442.58C167.137 443.162 166.849 443.462 166.189 443.462C165.775 443.462 165.325 443.318 165.049 443.096L164.677 443.768C165.055 444.062 165.649 444.212 166.261 444.212C167.425 444.212 168.073 443.66 168.073 442.46V439.772H167.185ZM166.303 442.076C165.811 442.076 165.451 441.758 165.451 441.284C165.451 440.81 165.811 440.492 166.303 440.492C166.795 440.492 167.149 440.81 167.149 441.284C167.149 441.758 166.795 442.076 166.303 442.076Z" fill="#303548"/>
<path d="M180.96 443.048C181.926 443.048 182.484 442.622 182.484 442.022C182.484 440.75 180.534 441.284 180.534 440.732C180.534 440.564 180.714 440.432 181.134 440.432C181.428 440.432 181.746 440.492 182.064 440.672L182.376 440.006C182.07 439.826 181.578 439.724 181.134 439.724C180.192 439.724 179.64 440.156 179.64 440.768C179.64 442.058 181.59 441.518 181.59 442.046C181.59 442.226 181.428 442.34 180.996 442.34C180.6 442.34 180.162 442.214 179.874 442.028L179.562 442.7C179.862 442.898 180.414 443.048 180.96 443.048ZM186.224 441.398C186.224 440.36 185.492 439.724 184.544 439.724C183.56 439.724 182.822 440.42 182.822 441.386C182.822 442.346 183.548 443.048 184.664 443.048C185.246 443.048 185.696 442.868 185.996 442.526L185.498 441.986C185.276 442.196 185.03 442.298 184.688 442.298C184.196 442.298 183.854 442.052 183.764 441.65H186.206C186.212 441.572 186.224 441.47 186.224 441.398ZM184.55 440.432C184.97 440.432 185.276 440.696 185.342 441.104H183.752C183.818 440.69 184.124 440.432 184.55 440.432ZM188.755 439.724C188.323 439.724 187.975 439.862 187.741 440.144V439.772H186.847V444.164H187.783V442.658C188.023 442.922 188.353 443.048 188.755 443.048C189.661 443.048 190.363 442.4 190.363 441.386C190.363 440.372 189.661 439.724 188.755 439.724ZM188.593 442.28C188.125 442.28 187.771 441.944 187.771 441.386C187.771 440.828 188.125 440.492 188.593 440.492C189.061 440.492 189.415 440.828 189.415 441.386C189.415 441.944 189.061 442.28 188.593 442.28Z" fill="#303548"/>
<path d="M208.403 443.048C209.429 443.048 210.173 442.358 210.173 441.386C210.173 440.414 209.429 439.724 208.403 439.724C207.377 439.724 206.627 440.414 206.627 441.386C206.627 442.358 207.377 443.048 208.403 443.048ZM208.403 442.28C207.935 442.28 207.575 441.944 207.575 441.386C207.575 440.828 207.935 440.492 208.403 440.492C208.871 440.492 209.225 440.828 209.225 441.386C209.225 441.944 208.871 442.28 208.403 442.28ZM212.358 443.048C213.036 443.048 213.57 442.748 213.804 442.232L213.078 441.836C212.904 442.148 212.646 442.28 212.352 442.28C211.878 442.28 211.506 441.95 211.506 441.386C211.506 440.822 211.878 440.492 212.352 440.492C212.646 440.492 212.904 440.63 213.078 440.936L213.804 440.546C213.57 440.018 213.036 439.724 212.358 439.724C211.308 439.724 210.558 440.414 210.558 441.386C210.558 442.358 211.308 443.048 212.358 443.048ZM216.22 442.184C216.118 442.262 215.98 442.304 215.842 442.304C215.59 442.304 215.44 442.154 215.44 441.878V440.564H216.244V439.844H215.44V439.058H214.504V439.844H214.006V440.564H214.504V441.89C214.504 442.658 214.948 443.048 215.71 443.048C215.998 443.048 216.28 442.982 216.472 442.844L216.22 442.184Z" fill="#303548"/>
<path d="M230.587 439.724C230.149 439.724 229.771 439.874 229.519 440.15V439.772H228.625V443H229.561V441.404C229.561 440.81 229.885 440.534 230.335 440.534C230.749 440.534 230.989 440.774 230.989 441.296V443H231.925V441.152C231.925 440.168 231.349 439.724 230.587 439.724ZM234.345 443.048C235.371 443.048 236.115 442.358 236.115 441.386C236.115 440.414 235.371 439.724 234.345 439.724C233.319 439.724 232.569 440.414 232.569 441.386C232.569 442.358 233.319 443.048 234.345 443.048ZM234.345 442.28C233.877 442.28 233.517 441.944 233.517 441.386C233.517 440.828 233.877 440.492 234.345 440.492C234.813 440.492 235.167 440.828 235.167 441.386C235.167 441.944 234.813 442.28 234.345 442.28ZM238.957 439.772L238.033 441.968L237.139 439.772H236.173L237.529 443H238.495L239.857 439.772H238.957Z" fill="#303548"/>
<rect opacity="0.2" x="-11" y="297" width="26" height="135" fill="#C4C4C4"/>
<rect opacity="0.2" x="38" y="297" width="26" height="135" fill="#C4C4C4"/>
<rect opacity="0.2" x="87" y="297" width="26" height="135" fill="#C4C4C4"/>
<rect opacity="0.2" x="136" y="297" width="26" height="135" fill="#C4C4C4"/>
<rect opacity="0.2" x="185" y="297" width="26" height="135" fill="#C4C4C4"/>
<rect opacity="0.2" x="234" y="297" width="11" height="135" fill="#C4C4C4"/>
<circle cx="15.5" cy="383.5" r="2.5" fill="#2F80ED"/>
<circle cx="38.5" cy="407.5" r="2.5" fill="#2F80ED"/>
<circle cx="64.5" cy="389.5" r="2.5" fill="#2F80ED"/>
<circle cx="87.5" cy="421.5" r="2.5" fill="#2F80ED"/>
<circle cx="112.5" cy="359.5" r="2.5" fill="#2F80ED"/>
<circle cx="185.5" cy="359.5" r="2.5" fill="#2F80ED"/>
<circle cx="138.5" cy="312.5" r="2.5" fill="#2F80ED"/>
<circle cx="162.5" cy="406.5" r="2.5" fill="#2F80ED"/>
<path d="M-11.5 407.5C1 407.5 1 382 14 382C27 382 28 407.5 39.5 407.5C51 407.5 54 390 65 390C76 390 77.5 422 87.5 422C97.5 422 99.5 360 112 360C124.5 360 128 312.5 138.5 312.5C149 312.5 150.5 406 162.5 406C174.5 406 177 360 185.5 360" stroke="#2F80ED" stroke-width="1.4"/>
<path d="M-10.12 126L-10.128 120.4H-10.984L-13.168 124.112L-15.392 120.4H-16.248V126H-15.256V122.336L-13.416 125.36H-12.952L-11.112 122.288L-11.104 126H-10.12ZM-4.68737 123.888C-4.68737 122.552 -5.59937 121.68 -6.84737 121.68C-8.11937 121.68 -9.05537 122.592 -9.05537 123.864C-9.05537 125.136 -8.12737 126.056 -6.69537 126.056C-5.95937 126.056 -5.35938 125.816 -4.97537 125.36L-5.51137 124.744C-5.81537 125.056 -6.19137 125.208 -6.67137 125.208C-7.41537 125.208 -7.93537 124.808 -8.05537 124.184H-4.70337C-4.69537 124.088 -4.68737 123.968 -4.68737 123.888ZM-6.84737 122.48C-6.19137 122.48 -5.71937 122.904 -5.63937 123.52H-8.06337C-7.96737 122.896 -7.49537 122.48 -6.84737 122.48ZM-0.438812 121.728V122.296C-0.790812 121.872 -1.31881 121.68 -1.91881 121.68C-3.14281 121.68 -4.07881 122.496 -4.07881 123.736C-4.07881 124.976 -3.14281 125.808 -1.91881 125.808C-1.34281 125.808 -0.838812 125.624 -0.486812 125.24V125.464C-0.486812 126.328 -0.902812 126.76 -1.84681 126.76C-2.43881 126.76 -3.04681 126.56 -3.42281 126.248L-3.87081 127C-3.38281 127.4 -2.59081 127.608 -1.79081 127.608C-0.294812 127.608 0.513188 126.904 0.513188 125.352V121.728H-0.438812ZM-1.76681 124.96C-2.52681 124.96 -3.07081 124.464 -3.07081 123.736C-3.07081 123.016 -2.52681 122.528 -1.76681 122.528C-1.01481 122.528 -0.470812 123.016 -0.470812 123.736C-0.470812 124.464 -1.01481 124.96 -1.76681 124.96ZM3.45988 121.68C2.77188 121.68 2.10788 121.856 1.65188 122.208L2.04388 122.936C2.36388 122.672 2.85988 122.512 3.33988 122.512C4.05188 122.512 4.40388 122.856 4.40388 123.44V123.504H3.29988C2.00388 123.504 1.52388 124.064 1.52388 124.776C1.52388 125.52 2.13988 126.056 3.11588 126.056C3.75588 126.056 4.21988 125.848 4.45988 125.48V126H5.40388V123.496C5.40388 122.264 4.69188 121.68 3.45988 121.68ZM3.32388 125.328C2.81188 125.328 2.50788 125.096 2.50788 124.736C2.50788 124.424 2.69188 124.168 3.37188 124.168H4.40388V124.664C4.23588 125.104 3.81188 125.328 3.32388 125.328Z" fill="black"/>
<path d="M385.472 123.088C385.992 122.864 386.296 122.44 386.296 121.84C386.296 120.912 385.544 120.4 384.296 120.4H381.792V126H384.448C385.84 126 386.568 125.416 386.568 124.448C386.568 123.744 386.176 123.28 385.472 123.088ZM382.816 121.2H384.208C384.88 121.2 385.24 121.472 385.24 122C385.24 122.52 384.88 122.792 384.208 122.792H382.816V121.2ZM384.416 125.2H382.816V123.552H384.416C385.136 123.552 385.52 123.808 385.52 124.368C385.52 124.928 385.136 125.2 384.416 125.2ZM389.233 121.68C388.545 121.68 387.881 121.856 387.425 122.208L387.817 122.936C388.137 122.672 388.633 122.512 389.113 122.512C389.825 122.512 390.177 122.856 390.177 123.44V123.504H389.073C387.777 123.504 387.297 124.064 387.297 124.776C387.297 125.52 387.913 126.056 388.889 126.056C389.529 126.056 389.993 125.848 390.233 125.48V126H391.177V123.496C391.177 122.264 390.465 121.68 389.233 121.68ZM389.097 125.328C388.585 125.328 388.281 125.096 388.281 124.736C388.281 124.424 388.465 124.168 389.145 124.168H390.177V124.664C390.009 125.104 389.585 125.328 389.097 125.328ZM396.342 125.152V121.728H392.822L392.766 123.192C392.718 124.192 392.614 125.128 392.014 125.152H391.814V126.952H392.742V126H396.038V126.952H396.974V125.152H396.342ZM393.678 123.264L393.702 122.576H395.342V125.152H393.238C393.582 124.824 393.646 124.064 393.678 123.264ZM397.867 126H398.787L401.139 123.184V126H402.139V121.728H401.227L398.867 124.544V121.728H397.867V126ZM408.589 126L408.581 121.728H407.645L406.053 124.4L404.533 121.728H403.485V126H404.397V123.16L405.813 125.552H406.245L407.685 123.168V126H408.589Z" fill="black"/>
<path d="M14.5 122L16.5 124L18.5 122" stroke="black"/>
<path d="M420 122L422 124L424 122" stroke="black"/>
<rect x="349" y="111" width="25" height="25" rx="12.5" fill="url(#pattern1)"/>
<rect x="-49.5" y="100.5" width="510" height="414" stroke="black" stroke-opacity="0.05"/>
</g>
</g>
<defs>
<filter id="filter0_f_94:310" x="-59" y="560" width="643" height="36" filterUnits="userSpaceOnUse" color-interpolation-filters="sRGB">
<feFlood flood-opacity="0" result="BackgroundImageFix"/>
<feBlend mode="normal" in="SourceGraphic" in2="BackgroundImageFix" result="shape"/>
<feGaussianBlur stdDeviation="4.5" result="effect1_foregroundBlur_94:310"/>
</filter>
<filter id="filter1_d_94:310" x="-119" y="0" width="798" height="655" filterUnits="userSpaceOnUse" color-interpolation-filters="sRGB">
<feFlood flood-opacity="0" result="BackgroundImageFix"/>
<feColorMatrix in="SourceAlpha" type="matrix" values="0 0 0 0 0 0 0 0 0 0 0 0 0 0 0 0 0 0 127 0" result="hardAlpha"/>
<feOffset dy="4"/>
<feGaussianBlur stdDeviation="34.5"/>
<feColorMatrix type="matrix" values="0 0 0 0 0.0639757 0 0 0 0 0.100318 0 0 0 0 0.229167 0 0 0 0.106 0"/>
<feBlend mode="normal" in2="BackgroundImageFix" result="effect1_dropShadow_94:310"/>
<feBlend mode="normal" in="SourceGraphic" in2="effect1_dropShadow_94:310" result="shape"/>
</filter>
<pattern id="pattern0" patternContentUnits="objectBoundingBox" width="1" height="1">
<use xlink:href="#image0_94:310" transform="translate(0 -0.025384) scale(0.000795545 0.00134887)"/>
</pattern>
<filter id="filter2_d_94:310" x="-218" y="100" width="683" height="428" filterUnits="userSpaceOnUse" color-interpolation-filters="sRGB">
<feFlood flood-opacity="0" result="BackgroundImageFix"/>
<feColorMatrix in="SourceAlpha" type="matrix" values="0 0 0 0 0 0 0 0 0 0 0 0 0 0 0 0 0 0 127 0" result="hardAlpha"/>
<feOffset dy="4"/>
<feGaussianBlur stdDeviation="2"/>
<feColorMatrix type="matrix" values="0 0 0 0 0 0 0 0 0 0 0 0 0 0 0 0 0 0 0.03 0"/>
<feBlend mode="normal" in2="BackgroundImageFix" result="effect1_dropShadow_94:310"/>
<feBlend mode="normal" in="SourceGraphic" in2="effect1_dropShadow_94:310" result="shape"/>
</filter>
<filter id="filter3_d_94:310" x="277" y="263" width="164" height="104" filterUnits="userSpaceOnUse" color-interpolation-filters="sRGB">
<feFlood flood-opacity="0" result="BackgroundImageFix"/>
<feColorMatrix in="SourceAlpha" type="matrix" values="0 0 0 0 0 0 0 0 0 0 0 0 0 0 0 0 0 0 127 0" result="hardAlpha"/>
<feOffset dy="4"/>
<feGaussianBlur stdDeviation="2"/>
<feColorMatrix type="matrix" values="0 0 0 0 0 0 0 0 0 0 0 0 0 0 0 0 0 0 0.03 0"/>
<feBlend mode="normal" in2="BackgroundImageFix" result="effect1_dropShadow_94:310"/>
<feBlend mode="normal" in="SourceGraphic" in2="effect1_dropShadow_94:310" result="shape"/>
</filter>
<filter id="filter4_d_94:310" x="277" y="376" width="164" height="104" filterUnits="userSpaceOnUse" color-interpolation-filters="sRGB">
<feFlood flood-opacity="0" result="BackgroundImageFix"/>
<feColorMatrix in="SourceAlpha" type="matrix" values="0 0 0 0 0 0 0 0 0 0 0 0 0 0 0 0 0 0 127 0" result="hardAlpha"/>
<feOffset dy="4"/>
<feGaussianBlur stdDeviation="2"/>
<feColorMatrix type="matrix" values="0 0 0 0 0 0 0 0 0 0 0 0 0 0 0 0 0 0 0.03 0"/>
<feBlend mode="normal" in2="BackgroundImageFix" result="effect1_dropShadow_94:310"/>
<feBlend mode="normal" in="SourceGraphic" in2="effect1_dropShadow_94:310" result="shape"/>
</filter>
<filter id="filter5_d_94:310" x="-218" y="100" width="683" height="54" filterUnits="userSpaceOnUse" color-interpolation-filters="sRGB">
<feFlood flood-opacity="0" result="BackgroundImageFix"/>
<feColorMatrix in="SourceAlpha" type="matrix" values="0 0 0 0 0 0 0 0 0 0 0 0 0 0 0 0 0 0 127 0" result="hardAlpha"/>
<feOffset dy="4"/>
<feGaussianBlur stdDeviation="2"/>
<feColorMatrix type="matrix" values="0 0 0 0 0 0 0 0 0 0 0 0 0 0 0 0 0 0 0.03 0"/>
<feBlend mode="normal" in2="BackgroundImageFix" result="effect1_dropShadow_94:310"/>
<feBlend mode="normal" in="SourceGraphic" in2="effect1_dropShadow_94:310" result="shape"/>
</filter>
<filter id="filter6_d_94:310" x="-59" y="183" width="119" height="71" filterUnits="userSpaceOnUse" color-interpolation-filters="sRGB">
<feFlood flood-opacity="0" result="BackgroundImageFix"/>
<feColorMatrix in="SourceAlpha" type="matrix" values="0 0 0 0 0 0 0 0 0 0 0 0 0 0 0 0 0 0 127 0" result="hardAlpha"/>
<feOffset dy="4"/>
<feGaussianBlur stdDeviation="2"/>
<feColorMatrix type="matrix" values="0 0 0 0 0 0 0 0 0 0 0 0 0 0 0 0 0 0 0.03 0"/>
<feBlend mode="normal" in2="BackgroundImageFix" result="effect1_dropShadow_94:310"/>
<feBlend mode="normal" in="SourceGraphic" in2="effect1_dropShadow_94:310" result="shape"/>
</filter>
<filter id="filter7_d_94:310" x="67" y="183" width="119" height="71" filterUnits="userSpaceOnUse" color-interpolation-filters="sRGB">
<feFlood flood-opacity="0" result="BackgroundImageFix"/>
<feColorMatrix in="SourceAlpha" type="matrix" values="0 0 0 0 0 0 0 0 0 0 0 0 0 0 0 0 0 0 127 0" result="hardAlpha"/>
<feOffset dy="4"/>
<feGaussianBlur stdDeviation="2"/>
<feColorMatrix type="matrix" values="0 0 0 0 0 0 0 0 0 0 0 0 0 0 0 0 0 0 0.03 0"/>
<feBlend mode="normal" in2="BackgroundImageFix" result="effect1_dropShadow_94:310"/>
<feBlend mode="normal" in="SourceGraphic" in2="effect1_dropShadow_94:310" result="shape"/>
</filter>
<filter id="filter8_d_94:310" x="72" y="176" width="35" height="35" filterUnits="userSpaceOnUse" color-interpolation-filters="sRGB">
<feFlood flood-opacity="0" result="BackgroundImageFix"/>
<feColorMatrix in="SourceAlpha" type="matrix" values="0 0 0 0 0 0 0 0 0 0 0 0 0 0 0 0 0 0 127 0" result="hardAlpha"/>
<feOffset dy="4"/>
<feGaussianBlur stdDeviation="2"/>
<feColorMatrix type="matrix" values="0 0 0 0 0 0 0 0 0 0 0 0 0 0 0 0 0 0 0.03 0"/>
<feBlend mode="normal" in2="BackgroundImageFix" result="effect1_dropShadow_94:310"/>
<feBlend mode="normal" in="SourceGraphic" in2="effect1_dropShadow_94:310" result="shape"/>
</filter>
<filter id="filter9_d_94:310" x="193" y="183" width="119" height="71" filterUnits="userSpaceOnUse" color-interpolation-filters="sRGB">
<feFlood flood-opacity="0" result="BackgroundImageFix"/>
<feColorMatrix in="SourceAlpha" type="matrix" values="0 0 0 0 0 0 0 0 0 0 0 0 0 0 0 0 0 0 127 0" result="hardAlpha"/>
<feOffset dy="4"/>
<feGaussianBlur stdDeviation="2"/>
<feColorMatrix type="matrix" values="0 0 0 0 0 0 0 0 0 0 0 0 0 0 0 0 0 0 0.03 0"/>
<feBlend mode="normal" in2="BackgroundImageFix" result="effect1_dropShadow_94:310"/>
<feBlend mode="normal" in="SourceGraphic" in2="effect1_dropShadow_94:310" result="shape"/>
</filter>
<filter id="filter10_d_94:310" x="198" y="176" width="35" height="35" filterUnits="userSpaceOnUse" color-interpolation-filters="sRGB">
<feFlood flood-opacity="0" result="BackgroundImageFix"/>
<feColorMatrix in="SourceAlpha" type="matrix" values="0 0 0 0 0 0 0 0 0 0 0 0 0 0 0 0 0 0 127 0" result="hardAlpha"/>
<feOffset dy="4"/>
<feGaussianBlur stdDeviation="2"/>
<feColorMatrix type="matrix" values="0 0 0 0 0 0 0 0 0 0 0 0 0 0 0 0 0 0 0.03 0"/>
<feBlend mode="normal" in2="BackgroundImageFix" result="effect1_dropShadow_94:310"/>
<feBlend mode="normal" in="SourceGraphic" in2="effect1_dropShadow_94:310" result="shape"/>
</filter>
<filter id="filter11_d_94:310" x="319" y="183" width="119" height="71" filterUnits="userSpaceOnUse" color-interpolation-filters="sRGB">
<feFlood flood-opacity="0" result="BackgroundImageFix"/>
<feColorMatrix in="SourceAlpha" type="matrix" values="0 0 0 0 0 0 0 0 0 0 0 0 0 0 0 0 0 0 127 0" result="hardAlpha"/>
<feOffset dy="4"/>
<feGaussianBlur stdDeviation="2"/>
<feColorMatrix type="matrix" values="0 0 0 0 0 0 0 0 0 0 0 0 0 0 0 0 0 0 0.03 0"/>
<feBlend mode="normal" in2="BackgroundImageFix" result="effect1_dropShadow_94:310"/>
<feBlend mode="normal" in="SourceGraphic" in2="effect1_dropShadow_94:310" result="shape"/>
</filter>
<filter id="filter12_d_94:310" x="324" y="176" width="35" height="35" filterUnits="userSpaceOnUse" color-interpolation-filters="sRGB">
<feFlood flood-opacity="0" result="BackgroundImageFix"/>
<feColorMatrix in="SourceAlpha" type="matrix" values="0 0 0 0 0 0 0 0 0 0 0 0 0 0 0 0 0 0 127 0" result="hardAlpha"/>
<feOffset dy="4"/>
<feGaussianBlur stdDeviation="2"/>
<feColorMatrix type="matrix" values="0 0 0 0 0 0 0 0 0 0 0 0 0 0 0 0 0 0 0.03 0"/>
<feBlend mode="normal" in2="BackgroundImageFix" result="effect1_dropShadow_94:310"/>
<feBlend mode="normal" in="SourceGraphic" in2="effect1_dropShadow_94:310" result="shape"/>
</filter>
<filter id="filter13_d_94:310" x="-59" y="264" width="329" height="216" filterUnits="userSpaceOnUse" color-interpolation-filters="sRGB">
<feFlood flood-opacity="0" result="BackgroundImageFix"/>
<feColorMatrix in="SourceAlpha" type="matrix" values="0 0 0 0 0 0 0 0 0 0 0 0 0 0 0 0 0 0 127 0" result="hardAlpha"/>
<feOffset dy="4"/>
<feGaussianBlur stdDeviation="2"/>
<feColorMatrix type="matrix" values="0 0 0 0 0 0 0 0 0 0 0 0 0 0 0 0 0 0 0.03 0"/>
<feBlend mode="normal" in2="BackgroundImageFix" result="effect1_dropShadow_94:310"/>
<feBlend mode="normal" in="SourceGraphic" in2="effect1_dropShadow_94:310" result="shape"/>
</filter>
<pattern id="pattern1" patternContentUnits="objectBoundingBox" width="1" height="1">
<use xlink:href="#image1_94:310" transform="translate(-0.255819 -0.338435) scale(0.00129236)"/>
</pattern>
<linearGradient id="paint0_linear_94:310" x1="223.5" y1="650.5" x2="245.5" y2="207.5" gradientUnits="userSpaceOnUse">
<stop/>
<stop offset="1" stop-color="white" stop-opacity="0"/>
</linearGradient>
<linearGradient id="paint1_linear_94:310" x1="280" y1="582" x2="280" y2="547" gradientUnits="userSpaceOnUse">
<stop/>
<stop offset="0.194651" stop-color="#848484" stop-opacity="0.483084"/>
<stop offset="1" stop-color="white" stop-opacity="0"/>
</linearGradient>
<linearGradient id="paint2_linear_94:310" x1="280" y1="599" x2="280" y2="547" gradientUnits="userSpaceOnUse">
<stop/>
<stop offset="1" stop-color="white" stop-opacity="0"/>
</linearGradient>
<clipPath id="clip0_94:310">
<rect width="156" height="96" fill="white" transform="translate(281 263)"/>
</clipPath>
<clipPath id="clip1_94:310">
<rect width="156" height="96" fill="white" transform="translate(281 376)"/>
</clipPath>
</defs>
</svg>
